<mxfile host="65bd71144e">
    <diagram id="LezJf64O-itEoXMhL8_R" name="Page-1">
        <mxGraphModel dx="1603" dy="782" grid="1" gridSize="10" guides="1" tooltips="1" connect="1" arrows="1" fold="1" page="1" pageScale="1" pageWidth="850" pageHeight="1100" math="0" shadow="0">
            <root>
                <mxCell id="0"/>
                <mxCell id="1" parent="0"/>
                <mxCell id="23" style="edgeStyle=none;html=1;endArrow=none;endFill=0;" parent="1" source="4" target="8" edge="1">
                    <mxGeometry relative="1" as="geometry"/>
                </mxCell>
                <mxCell id="24" style="edgeStyle=none;html=1;endArrow=none;endFill=0;" parent="1" source="4" target="10" edge="1">
                    <mxGeometry relative="1" as="geometry"/>
                </mxCell>
                <mxCell id="25" style="edgeStyle=none;html=1;endArrow=none;endFill=0;" parent="1" source="4" target="11" edge="1">
                    <mxGeometry relative="1" as="geometry"/>
                </mxCell>
                <mxCell id="26" style="edgeStyle=none;html=1;endArrow=none;endFill=0;" parent="1" source="4" target="13" edge="1">
                    <mxGeometry relative="1" as="geometry"/>
                </mxCell>
                <mxCell id="47" style="edgeStyle=none;html=1;entryX=1;entryY=1;entryDx=0;entryDy=0;endArrow=none;endFill=0;" parent="1" source="4" target="46" edge="1">
                    <mxGeometry relative="1" as="geometry"/>
                </mxCell>
                <mxCell id="66" style="edgeStyle=none;html=1;endArrow=none;endFill=0;" parent="1" source="4" target="16" edge="1">
                    <mxGeometry relative="1" as="geometry"/>
                </mxCell>
                <mxCell id="71" style="edgeStyle=none;html=1;endArrow=none;endFill=0;" parent="1" source="4" target="15" edge="1">
                    <mxGeometry relative="1" as="geometry"/>
                </mxCell>
                <mxCell id="72" style="edgeStyle=none;html=1;endArrow=none;endFill=0;" parent="1" source="4" target="14" edge="1">
                    <mxGeometry relative="1" as="geometry"/>
                </mxCell>
                <mxCell id="73" style="edgeStyle=none;html=1;endArrow=none;endFill=0;" parent="1" source="4" target="12" edge="1">
                    <mxGeometry relative="1" as="geometry"/>
                </mxCell>
                <mxCell id="4" value="videos_long" style="whiteSpace=wrap;html=1;align=center;" parent="1" vertex="1">
                    <mxGeometry x="180" y="130" width="100" height="40" as="geometry"/>
                </mxCell>
                <mxCell id="99" style="edgeStyle=none;html=1;endArrow=none;endFill=0;" parent="1" source="7" target="98" edge="1">
                    <mxGeometry relative="1" as="geometry"/>
                </mxCell>
                <mxCell id="100" style="edgeStyle=none;html=1;endArrow=none;endFill=0;" parent="1" source="7" target="89" edge="1">
                    <mxGeometry relative="1" as="geometry"/>
                </mxCell>
                <mxCell id="101" style="edgeStyle=none;html=1;endArrow=none;endFill=0;" parent="1" source="7" target="91" edge="1">
                    <mxGeometry relative="1" as="geometry"/>
                </mxCell>
                <mxCell id="102" style="edgeStyle=none;html=1;endArrow=none;endFill=0;" parent="1" source="7" target="95" edge="1">
                    <mxGeometry relative="1" as="geometry"/>
                </mxCell>
                <mxCell id="103" style="edgeStyle=none;html=1;endArrow=none;endFill=0;" parent="1" source="7" target="94" edge="1">
                    <mxGeometry relative="1" as="geometry"/>
                </mxCell>
                <mxCell id="104" style="edgeStyle=none;html=1;endArrow=none;endFill=0;" parent="1" source="7" target="90" edge="1">
                    <mxGeometry relative="1" as="geometry"/>
                </mxCell>
                <mxCell id="105" style="edgeStyle=none;html=1;endArrow=none;endFill=0;" parent="1" source="7" target="96" edge="1">
                    <mxGeometry relative="1" as="geometry"/>
                </mxCell>
                <mxCell id="106" style="edgeStyle=none;html=1;endArrow=none;endFill=0;" parent="1" source="7" target="93" edge="1">
                    <mxGeometry relative="1" as="geometry"/>
                </mxCell>
                <mxCell id="107" style="edgeStyle=none;html=1;endArrow=none;endFill=0;" parent="1" source="7" target="92" edge="1">
                    <mxGeometry relative="1" as="geometry"/>
                </mxCell>
                <mxCell id="7" value="users" style="whiteSpace=wrap;html=1;align=center;" parent="1" vertex="1">
                    <mxGeometry x="180" y="790" width="100" height="40" as="geometry"/>
                </mxCell>
                <mxCell id="8" value="&lt;span style=&quot;border-bottom: 1px dotted&quot;&gt;video_id&lt;br&gt;&lt;/span&gt;" style="ellipse;whiteSpace=wrap;html=1;align=center;" parent="1" vertex="1">
                    <mxGeometry x="180" y="40" width="100" height="40" as="geometry"/>
                </mxCell>
                <mxCell id="10" value="title" style="ellipse;whiteSpace=wrap;html=1;align=center;strokeColor=default;" parent="1" vertex="1">
                    <mxGeometry x="20" y="130" width="100" height="40" as="geometry"/>
                </mxCell>
                <mxCell id="11" value="description" style="ellipse;whiteSpace=wrap;html=1;align=center;strokeColor=default;" parent="1" vertex="1">
                    <mxGeometry x="300" y="70" width="100" height="40" as="geometry"/>
                </mxCell>
                <mxCell id="12" value="duration" style="ellipse;whiteSpace=wrap;html=1;align=center;strokeColor=default;" parent="1" vertex="1">
                    <mxGeometry x="310" y="190" width="100" height="40" as="geometry"/>
                </mxCell>
                <mxCell id="13" value="thumbnail_url" style="ellipse;whiteSpace=wrap;html=1;align=center;strokeColor=default;" parent="1" vertex="1">
                    <mxGeometry x="345" y="130" width="100" height="40" as="geometry"/>
                </mxCell>
                <mxCell id="14" value="video_url" style="ellipse;whiteSpace=wrap;html=1;align=center;strokeColor=default;" parent="1" vertex="1">
                    <mxGeometry x="240" y="240" width="100" height="40" as="geometry"/>
                </mxCell>
                <mxCell id="15" value="created_at" style="ellipse;whiteSpace=wrap;html=1;align=center;strokeColor=default;" parent="1" vertex="1">
                    <mxGeometry x="120" y="240" width="100" height="40" as="geometry"/>
                </mxCell>
                <mxCell id="16" value="channel_id" style="ellipse;whiteSpace=wrap;html=1;align=center;strokeColor=default;" parent="1" vertex="1">
                    <mxGeometry x="50" y="190" width="100" height="40" as="geometry"/>
                </mxCell>
                <mxCell id="28" style="edgeStyle=none;html=1;endArrow=none;endFill=0;" parent="1" source="32" target="33" edge="1">
                    <mxGeometry relative="1" as="geometry"/>
                </mxCell>
                <mxCell id="29" style="edgeStyle=none;html=1;endArrow=none;endFill=0;" parent="1" source="32" target="34" edge="1">
                    <mxGeometry relative="1" as="geometry"/>
                </mxCell>
                <mxCell id="30" style="edgeStyle=none;html=1;endArrow=none;endFill=0;" parent="1" source="32" target="35" edge="1">
                    <mxGeometry relative="1" as="geometry"/>
                </mxCell>
                <mxCell id="31" style="edgeStyle=none;html=1;endArrow=none;endFill=0;" parent="1" source="32" target="37" edge="1">
                    <mxGeometry relative="1" as="geometry"/>
                </mxCell>
                <mxCell id="50" style="edgeStyle=none;html=1;endArrow=none;endFill=0;" parent="1" source="32" target="48" edge="1">
                    <mxGeometry relative="1" as="geometry"/>
                </mxCell>
                <mxCell id="74" style="edgeStyle=none;html=1;endArrow=none;endFill=0;" parent="1" source="32" target="40" edge="1">
                    <mxGeometry relative="1" as="geometry"/>
                </mxCell>
                <mxCell id="75" style="edgeStyle=none;html=1;endArrow=none;endFill=0;" parent="1" source="32" target="39" edge="1">
                    <mxGeometry relative="1" as="geometry"/>
                </mxCell>
                <mxCell id="76" style="edgeStyle=none;html=1;endArrow=none;endFill=0;" parent="1" source="32" target="38" edge="1">
                    <mxGeometry relative="1" as="geometry"/>
                </mxCell>
                <mxCell id="77" style="edgeStyle=none;html=1;endArrow=none;endFill=0;" parent="1" source="32" target="36" edge="1">
                    <mxGeometry relative="1" as="geometry"/>
                </mxCell>
                <mxCell id="32" value="videos_short" style="whiteSpace=wrap;html=1;align=center;" parent="1" vertex="1">
                    <mxGeometry x="650" y="130" width="100" height="40" as="geometry"/>
                </mxCell>
                <mxCell id="33" value="&lt;span style=&quot;border-bottom: 1px dotted&quot;&gt;video_id&lt;br&gt;&lt;/span&gt;" style="ellipse;whiteSpace=wrap;html=1;align=center;" parent="1" vertex="1">
                    <mxGeometry x="650" y="40" width="100" height="40" as="geometry"/>
                </mxCell>
                <mxCell id="34" value="title" style="ellipse;whiteSpace=wrap;html=1;align=center;strokeColor=default;" parent="1" vertex="1">
                    <mxGeometry x="490" y="130" width="100" height="40" as="geometry"/>
                </mxCell>
                <mxCell id="35" value="description" style="ellipse;whiteSpace=wrap;html=1;align=center;strokeColor=default;" parent="1" vertex="1">
                    <mxGeometry x="760" y="70" width="100" height="40" as="geometry"/>
                </mxCell>
                <mxCell id="36" value="duration" style="ellipse;whiteSpace=wrap;html=1;align=center;strokeColor=default;" parent="1" vertex="1">
                    <mxGeometry x="780" y="190" width="100" height="40" as="geometry"/>
                </mxCell>
                <mxCell id="37" value="thumbnail_url" style="ellipse;whiteSpace=wrap;html=1;align=center;strokeColor=default;" parent="1" vertex="1">
                    <mxGeometry x="815" y="130" width="100" height="40" as="geometry"/>
                </mxCell>
                <mxCell id="38" value="video_url" style="ellipse;whiteSpace=wrap;html=1;align=center;strokeColor=default;" parent="1" vertex="1">
                    <mxGeometry x="710" y="240" width="100" height="40" as="geometry"/>
                </mxCell>
                <mxCell id="39" value="created_at" style="ellipse;whiteSpace=wrap;html=1;align=center;strokeColor=default;" parent="1" vertex="1">
                    <mxGeometry x="590" y="240" width="100" height="40" as="geometry"/>
                </mxCell>
                <mxCell id="40" value="channel_id" style="ellipse;whiteSpace=wrap;html=1;align=center;strokeColor=default;" parent="1" vertex="1">
                    <mxGeometry x="520" y="190" width="100" height="40" as="geometry"/>
                </mxCell>
                <mxCell id="41" value="banner_url" style="ellipse;whiteSpace=wrap;html=1;align=center;strokeColor=default;" parent="1" vertex="1">
                    <mxGeometry x="40" y="480" width="100" height="40" as="geometry"/>
                </mxCell>
                <mxCell id="42" value="name_channel" style="ellipse;whiteSpace=wrap;html=1;align=center;strokeColor=default;" parent="1" vertex="1">
                    <mxGeometry x="290" y="420" width="100" height="40" as="geometry"/>
                </mxCell>
                <mxCell id="43" value="username_channel" style="ellipse;whiteSpace=wrap;html=1;align=center;strokeColor=default;" parent="1" vertex="1">
                    <mxGeometry x="85" y="420" width="100" height="40" as="geometry"/>
                </mxCell>
                <mxCell id="45" value="description_channel" style="ellipse;whiteSpace=wrap;html=1;align=center;strokeColor=default;" parent="1" vertex="1">
                    <mxGeometry x="330" y="480" width="100" height="40" as="geometry"/>
                </mxCell>
                <mxCell id="46" value="&lt;div style=&quot;color: rgb(218, 218, 218); background-color: rgb(30, 30, 30); font-family: Menlo, Monaco, &amp;quot;Courier New&amp;quot;, monospace; line-height: 18px;&quot;&gt;updated_at&lt;/div&gt;" style="ellipse;whiteSpace=wrap;html=1;align=center;strokeColor=default;" parent="1" vertex="1">
                    <mxGeometry x="70" y="70" width="100" height="40" as="geometry"/>
                </mxCell>
                <mxCell id="48" value="&lt;div style=&quot;color: rgb(218, 218, 218); background-color: rgb(30, 30, 30); font-family: Menlo, Monaco, &amp;quot;Courier New&amp;quot;, monospace; line-height: 18px;&quot;&gt;updated_at&lt;/div&gt;" style="ellipse;whiteSpace=wrap;html=1;align=center;strokeColor=default;" parent="1" vertex="1">
                    <mxGeometry x="540" y="70" width="100" height="40" as="geometry"/>
                </mxCell>
                <mxCell id="54" value="channel_id" style="ellipse;whiteSpace=wrap;html=1;align=center;fontStyle=4;strokeColor=default;" parent="1" vertex="1">
                    <mxGeometry x="185" y="380" width="100" height="40" as="geometry"/>
                </mxCell>
                <mxCell id="78" style="edgeStyle=none;html=1;entryX=0.5;entryY=1;entryDx=0;entryDy=0;endArrow=none;endFill=0;" parent="1" source="55" target="54" edge="1">
                    <mxGeometry relative="1" as="geometry"/>
                </mxCell>
                <mxCell id="79" style="edgeStyle=none;html=1;endArrow=none;endFill=0;" parent="1" source="55" target="43" edge="1">
                    <mxGeometry relative="1" as="geometry"/>
                </mxCell>
                <mxCell id="80" style="edgeStyle=none;html=1;endArrow=none;endFill=0;" parent="1" source="55" target="41" edge="1">
                    <mxGeometry relative="1" as="geometry"/>
                </mxCell>
                <mxCell id="81" style="edgeStyle=none;html=1;endArrow=none;endFill=0;" parent="1" source="55" target="56" edge="1">
                    <mxGeometry relative="1" as="geometry"/>
                </mxCell>
                <mxCell id="82" style="edgeStyle=none;html=1;endArrow=none;endFill=0;" parent="1" source="55" target="57" edge="1">
                    <mxGeometry relative="1" as="geometry"/>
                </mxCell>
                <mxCell id="83" style="edgeStyle=none;html=1;endArrow=none;endFill=0;" parent="1" source="55" target="58" edge="1">
                    <mxGeometry relative="1" as="geometry"/>
                </mxCell>
                <mxCell id="84" style="edgeStyle=none;html=1;endArrow=none;endFill=0;" parent="1" source="55" target="45" edge="1">
                    <mxGeometry relative="1" as="geometry"/>
                </mxCell>
                <mxCell id="85" style="edgeStyle=none;html=1;endArrow=none;endFill=0;" parent="1" source="55" target="42" edge="1">
                    <mxGeometry relative="1" as="geometry"/>
                </mxCell>
                <mxCell id="55" value="channels" style="whiteSpace=wrap;html=1;align=center;strokeColor=default;" parent="1" vertex="1">
                    <mxGeometry x="185" y="480" width="100" height="40" as="geometry"/>
                </mxCell>
                <mxCell id="56" value="profiles_channel_url" style="ellipse;whiteSpace=wrap;html=1;align=center;strokeColor=default;" parent="1" vertex="1">
                    <mxGeometry x="85" y="530" width="100" height="40" as="geometry"/>
                </mxCell>
                <mxCell id="57" value="created_at" style="ellipse;whiteSpace=wrap;html=1;align=center;strokeColor=default;" parent="1" vertex="1">
                    <mxGeometry x="185" y="570" width="100" height="40" as="geometry"/>
                </mxCell>
                <mxCell id="58" value="updated_at" style="ellipse;whiteSpace=wrap;html=1;align=center;strokeColor=default;" parent="1" vertex="1">
                    <mxGeometry x="290" y="530" width="100" height="40" as="geometry"/>
                </mxCell>
                <mxCell id="86" style="edgeStyle=none;html=1;endArrow=none;endFill=0;" parent="1" source="60" target="65" edge="1">
                    <mxGeometry relative="1" as="geometry"/>
                </mxCell>
                <mxCell id="87" style="edgeStyle=none;html=1;endArrow=none;endFill=0;" parent="1" source="60" target="63" edge="1">
                    <mxGeometry relative="1" as="geometry"/>
                </mxCell>
                <mxCell id="88" style="edgeStyle=none;html=1;endArrow=none;endFill=0;" parent="1" source="60" target="64" edge="1">
                    <mxGeometry relative="1" as="geometry"/>
                </mxCell>
                <mxCell id="60" value="channel_subscribe" style="whiteSpace=wrap;html=1;align=center;strokeColor=default;" parent="1" vertex="1">
                    <mxGeometry x="650" y="480" width="100" height="40" as="geometry"/>
                </mxCell>
                <mxCell id="63" value="subscribed_at" style="ellipse;whiteSpace=wrap;html=1;align=center;strokeColor=default;" parent="1" vertex="1">
                    <mxGeometry x="760" y="540" width="100" height="40" as="geometry"/>
                </mxCell>
                <mxCell id="64" value="user_id&lt;span style=&quot;color: rgba(0, 0, 0, 0); font-family: monospace; font-size: 0px; text-align: start;&quot;&gt;%3CmxGraphModel%3E%3Croot%3E%3CmxCell%20id%3D%220%22%2F%3E%3CmxCell%20id%3D%221%22%20parent%3D%220%22%2F%3E%3CmxCell%20id%3D%222%22%20value%3D%22channels%22%20style%3D%22whiteSpace%3Dwrap%3Bhtml%3D1%3Balign%3Dcenter%3BstrokeColor%3Ddefault%3B%22%20vertex%3D%221%22%20parent%3D%221%22%3E%3CmxGeometry%20x%3D%22185%22%20y%3D%22480%22%20width%3D%22100%22%20height%3D%2240%22%20as%3D%22geometry%22%2F%3E%3C%2FmxCell%3E%3C%2Froot%3E%3C%2FmxGraphModel%3E&lt;/span&gt;" style="ellipse;whiteSpace=wrap;html=1;align=center;fontStyle=4;strokeColor=default;" parent="1" vertex="1">
                    <mxGeometry x="650" y="400" width="100" height="40" as="geometry"/>
                </mxCell>
                <mxCell id="65" value="channel_id&lt;span style=&quot;color: rgba(0, 0, 0, 0); font-family: monospace; font-size: 0px; text-align: start;&quot;&gt;%3CmxGraphModel%3E%3Croot%3E%3CmxCell%20id%3D%220%22%2F%3E%3CmxCell%20id%3D%221%22%20parent%3D%220%22%2F%3E%3CmxCell%20id%3D%222%22%20value%3D%22channels%22%20style%3D%22whiteSpace%3Dwrap%3Bhtml%3D1%3Balign%3Dcenter%3BstrokeColor%3Ddefault%3B%22%20vertex%3D%221%22%20parent%3D%221%22%3E%3CmxGeometry%20x%3D%22185%22%20y%3D%22480%22%20width%3D%22100%22%20height%3D%2240%22%20as%3D%22geometry%22%2F%3E%3C%2FmxCell%3E%3C%2Froot%3E%3C%2FmxGraphModel%3E&lt;/span&gt;" style="ellipse;whiteSpace=wrap;html=1;align=center;fontStyle=4;strokeColor=default;" parent="1" vertex="1">
                    <mxGeometry x="540" y="540" width="100" height="40" as="geometry"/>
                </mxCell>
                <mxCell id="89" value="user_id" style="ellipse;whiteSpace=wrap;html=1;align=center;fontStyle=4;strokeColor=default;" parent="1" vertex="1">
                    <mxGeometry x="240" y="700" width="100" height="40" as="geometry"/>
                </mxCell>
                <mxCell id="90" value="username" style="ellipse;whiteSpace=wrap;html=1;align=center;strokeColor=default;" parent="1" vertex="1">
                    <mxGeometry x="180" y="870" width="100" height="40" as="geometry"/>
                </mxCell>
                <mxCell id="91" value="password" style="ellipse;whiteSpace=wrap;html=1;align=center;strokeColor=default;" parent="1" vertex="1">
                    <mxGeometry x="300" y="740" width="100" height="40" as="geometry"/>
                </mxCell>
                <mxCell id="92" value="email" style="ellipse;whiteSpace=wrap;html=1;align=center;strokeColor=default;" parent="1" vertex="1">
                    <mxGeometry x="70" y="740" width="100" height="40" as="geometry"/>
                </mxCell>
                <mxCell id="93" value="first_name" style="ellipse;whiteSpace=wrap;html=1;align=center;strokeColor=default;" parent="1" vertex="1">
                    <mxGeometry x="80" y="840" width="100" height="40" as="geometry"/>
                </mxCell>
                <mxCell id="94" value="last_name" style="ellipse;whiteSpace=wrap;html=1;align=center;strokeColor=default;" parent="1" vertex="1">
                    <mxGeometry x="280" y="840" width="100" height="40" as="geometry"/>
                </mxCell>
                <mxCell id="95" value="created_at" style="ellipse;whiteSpace=wrap;html=1;align=center;strokeColor=default;" parent="1" vertex="1">
                    <mxGeometry x="320" y="790" width="100" height="40" as="geometry"/>
                </mxCell>
                <mxCell id="96" value="updated_at" style="ellipse;whiteSpace=wrap;html=1;align=center;strokeColor=default;" parent="1" vertex="1">
                    <mxGeometry x="40" y="790" width="100" height="40" as="geometry"/>
                </mxCell>
                <mxCell id="98" value="profile_picture_url" style="ellipse;whiteSpace=wrap;html=1;align=center;strokeColor=default;" parent="1" vertex="1">
                    <mxGeometry x="130" y="700" width="100" height="40" as="geometry"/>
                </mxCell>
                <mxCell id="115" style="edgeStyle=none;html=1;endArrow=none;endFill=0;" parent="1" source="108" target="110" edge="1">
                    <mxGeometry relative="1" as="geometry"/>
                </mxCell>
                <mxCell id="116" style="edgeStyle=none;html=1;endArrow=none;endFill=0;" parent="1" source="108" target="109" edge="1">
                    <mxGeometry relative="1" as="geometry"/>
                </mxCell>
                <mxCell id="117" style="edgeStyle=none;html=1;endArrow=none;endFill=0;" parent="1" source="108" target="111" edge="1">
                    <mxGeometry relative="1" as="geometry"/>
                </mxCell>
                <mxCell id="118" style="edgeStyle=none;html=1;endArrow=none;endFill=0;" parent="1" source="108" target="114" edge="1">
                    <mxGeometry relative="1" as="geometry"/>
                </mxCell>
                <mxCell id="119" style="edgeStyle=none;html=1;endArrow=none;endFill=0;" parent="1" source="108" target="112" edge="1">
                    <mxGeometry relative="1" as="geometry"/>
                </mxCell>
                <mxCell id="120" style="edgeStyle=none;html=1;endArrow=none;endFill=0;" parent="1" source="108" target="113" edge="1">
                    <mxGeometry relative="1" as="geometry"/>
                </mxCell>
                <mxCell id="108" value="comments" style="whiteSpace=wrap;html=1;align=center;strokeColor=default;" parent="1" vertex="1">
                    <mxGeometry x="620" y="780" width="100" height="40" as="geometry"/>
                </mxCell>
                <mxCell id="109" value="user_id" style="ellipse;whiteSpace=wrap;html=1;align=center;strokeColor=default;" parent="1" vertex="1">
                    <mxGeometry x="510" y="730" width="100" height="40" as="geometry"/>
                </mxCell>
                <mxCell id="110" value="comment_id" style="ellipse;whiteSpace=wrap;html=1;align=center;fontStyle=4;strokeColor=default;" parent="1" vertex="1">
                    <mxGeometry x="620" y="690" width="100" height="40" as="geometry"/>
                </mxCell>
                <mxCell id="111" value="video_id" style="ellipse;whiteSpace=wrap;html=1;align=center;strokeColor=default;" parent="1" vertex="1">
                    <mxGeometry x="740" y="730" width="100" height="40" as="geometry"/>
                </mxCell>
                <mxCell id="112" value="created_at" style="ellipse;whiteSpace=wrap;html=1;align=center;strokeColor=default;" parent="1" vertex="1">
                    <mxGeometry x="510" y="830" width="100" height="40" as="geometry"/>
                </mxCell>
                <mxCell id="113" value="updated_at" style="ellipse;whiteSpace=wrap;html=1;align=center;strokeColor=default;" parent="1" vertex="1">
                    <mxGeometry x="740" y="830" width="100" height="40" as="geometry"/>
                </mxCell>
                <mxCell id="114" value="content" style="ellipse;whiteSpace=wrap;html=1;align=center;strokeColor=default;" parent="1" vertex="1">
                    <mxGeometry x="620" y="870" width="100" height="40" as="geometry"/>
                </mxCell>
                <mxCell id="128" style="edgeStyle=none;html=1;endArrow=none;endFill=0;" parent="1" source="121" target="123" edge="1">
                    <mxGeometry relative="1" as="geometry"/>
                </mxCell>
                <mxCell id="129" style="edgeStyle=none;html=1;endArrow=none;endFill=0;" parent="1" source="121" target="126" edge="1">
                    <mxGeometry relative="1" as="geometry"/>
                </mxCell>
                <mxCell id="131" style="edgeStyle=none;html=1;endArrow=none;endFill=0;" parent="1" source="121" target="125" edge="1">
                    <mxGeometry relative="1" as="geometry"/>
                </mxCell>
                <mxCell id="132" style="edgeStyle=none;html=1;endArrow=none;endFill=0;" parent="1" source="121" target="127" edge="1">
                    <mxGeometry relative="1" as="geometry"/>
                </mxCell>
                <mxCell id="136" style="edgeStyle=none;html=1;endArrow=none;endFill=0;" parent="1" source="121" target="134" edge="1">
                    <mxGeometry relative="1" as="geometry"/>
                </mxCell>
                <mxCell id="137" style="edgeStyle=none;html=1;endArrow=none;endFill=0;" parent="1" source="121" target="135" edge="1">
                    <mxGeometry relative="1" as="geometry"/>
                </mxCell>
                <mxCell id="140" style="edgeStyle=none;html=1;endArrow=none;endFill=0;" parent="1" source="121" target="138" edge="1">
                    <mxGeometry relative="1" as="geometry"/>
                </mxCell>
                <mxCell id="121" value="popular" style="whiteSpace=wrap;html=1;align=center;strokeColor=default;" parent="1" vertex="1">
                    <mxGeometry x="1225" y="130" width="100" height="40" as="geometry"/>
                </mxCell>
                <mxCell id="123" value="view_count" style="ellipse;whiteSpace=wrap;html=1;align=center;strokeColor=default;" parent="1" vertex="1">
                    <mxGeometry x="1100" y="160" width="100" height="40" as="geometry"/>
                </mxCell>
                <mxCell id="125" value="like_count" style="ellipse;whiteSpace=wrap;html=1;align=center;strokeColor=default;" parent="1" vertex="1">
                    <mxGeometry x="1350" y="80" width="100" height="40" as="geometry"/>
                </mxCell>
                <mxCell id="126" value="dislike_count" style="ellipse;whiteSpace=wrap;html=1;align=center;strokeColor=default;" parent="1" vertex="1">
                    <mxGeometry x="1100" y="80" width="100" height="40" as="geometry"/>
                </mxCell>
                <mxCell id="127" value="comment_count" style="ellipse;whiteSpace=wrap;html=1;align=center;strokeColor=default;" parent="1" vertex="1">
                    <mxGeometry x="1360" y="160" width="100" height="40" as="geometry"/>
                </mxCell>
                <mxCell id="134" value="created_at" style="ellipse;whiteSpace=wrap;html=1;align=center;strokeColor=default;" parent="1" vertex="1">
                    <mxGeometry x="1160" y="220" width="100" height="40" as="geometry"/>
                </mxCell>
                <mxCell id="135" value="updated_at" style="ellipse;whiteSpace=wrap;html=1;align=center;strokeColor=default;" parent="1" vertex="1">
                    <mxGeometry x="1310" y="220" width="100" height="40" as="geometry"/>
                </mxCell>
                <mxCell id="138" value="video_id" style="ellipse;whiteSpace=wrap;html=1;align=center;fontStyle=4;strokeColor=default;" parent="1" vertex="1">
                    <mxGeometry x="1225" y="40" width="100" height="40" as="geometry"/>
                </mxCell>
            </root>
        </mxGraphModel>
    </diagram>
</mxfile>